<svg id="visual" viewBox="0 0 900 900" width="900" height="900" xmlns="http://www.w3.org/2000/svg" xmlns:xlink="http://www.w3.org/1999/xlink" version="1.1"><rect x="0" y="0" width="900" height="900" fill="#e23e57"></rect><g transform="translate(443.07246414333986 459.665499995385)"><path d="M206.4 -353.7C268.5 -321.7 320.4 -268.3 358.2 -205.8C395.9 -143.3 419.5 -71.7 418.7 -0.4C418 70.8 393 141.7 353.5 201.1C314 260.6 260 308.7 198.7 339.1C137.3 369.5 68.7 382.3 1.5 379.6C-65.6 377 -131.3 359 -195.1 330C-258.8 301 -320.8 261 -358.2 204.2C-395.5 147.3 -408.3 73.7 -404.1 2.4C-399.9 -68.8 -378.8 -137.7 -346.1 -202.6C-313.4 -267.6 -269.2 -328.6 -209.6 -362.1C-150 -395.5 -75 -401.2 -1.4 -398.8C72.2 -396.3 144.3 -385.7 206.4 -353.7" fill="#fefefe"></path></g></svg>