<svg id="visual" viewBox="0 0 900 200" width="900" height="200" xmlns="http://www.w3.org/2000/svg" xmlns:xlink="http://www.w3.org/1999/xlink" version="1.1"><rect x="0" y="0" width="900" height="200" fill="#e23e57"></rect><g transform="translate(1.887654178691534 -2.291206921789737)"><path d="M98.5 -166.4C131 -151.8 162.9 -132.2 180.9 -103.6C198.9 -75 203 -37.5 200.1 -1.7C197.2 34.2 187.4 68.3 169.9 97.9C152.5 127.5 127.5 152.5 97.9 169.6C68.3 186.7 34.2 195.8 0.7 194.7C-32.8 193.5 -65.6 182 -97.7 166.3C-129.7 150.7 -161 130.8 -180.1 102.4C-199.2 74 -206.1 37 -204.5 0.9C-202.9 -35.2 -192.8 -70.3 -173.7 -98.6C-154.5 -126.9 -126.2 -148.3 -95.8 -164.1C-65.3 -179.8 -32.7 -189.9 0.2 -190.2C33 -190.5 66 -181 98.5 -166.4" fill="#fefefe"></path></g></svg>