<svg id="visual" viewBox="0 0 900 200" width="900" height="200" xmlns="http://www.w3.org/2000/svg" xmlns:xlink="http://www.w3.org/1999/xlink" version="1.1"><rect x="0" y="0" width="900" height="200" fill="#311D3F"></rect><path d="M0 86L15 80.5C30 75 60 64 90 58.8C120 53.7 150 54.3 180 60.5C210 66.7 240 78.3 270 80.8C300 83.3 330 76.7 360 75.7C390 74.7 420 79.3 450 84.5C480 89.7 510 95.3 540 97C570 98.7 600 96.3 630 96C660 95.7 690 97.3 720 90.7C750 84 780 69 810 67.5C840 66 870 78 885 84L900 90L900 201L885 201C870 201 840 201 810 201C780 201 750 201 720 201C690 201 660 201 630 201C600 201 570 201 540 201C510 201 480 201 450 201C420 201 390 201 360 201C330 201 300 201 270 201C240 201 210 201 180 201C150 201 120 201 90 201C60 201 30 201 15 201L0 201Z" fill="#522546"></path><path d="M0 120L15 117.3C30 114.7 60 109.3 90 101.7C120 94 150 84 180 79C210 74 240 74 270 76.3C300 78.7 330 83.3 360 87.7C390 92 420 96 450 98C480 100 510 100 540 97.2C570 94.3 600 88.7 630 83.8C660 79 690 75 720 75.2C750 75.3 780 79.7 810 85.5C840 91.3 870 98.7 885 102.3L900 106L900 201L885 201C870 201 840 201 810 201C780 201 750 201 720 201C690 201 660 201 630 201C600 201 570 201 540 201C510 201 480 201 450 201C420 201 390 201 360 201C330 201 300 201 270 201C240 201 210 201 180 201C150 201 120 201 90 201C60 201 30 201 15 201L0 201Z" fill="#752a53"></path><path d="M0 109L15 113C30 117 60 125 90 128.3C120 131.7 150 130.3 180 126.2C210 122 240 115 270 115.2C300 115.3 330 122.7 360 125C390 127.3 420 124.7 450 121C480 117.3 510 112.7 540 108.7C570 104.7 600 101.3 630 101.5C660 101.7 690 105.3 720 109.8C750 114.3 780 119.7 810 118.8C840 118 870 111 885 107.5L900 104L900 201L885 201C870 201 840 201 810 201C780 201 750 201 720 201C690 201 660 201 630 201C600 201 570 201 540 201C510 201 480 201 450 201C420 201 390 201 360 201C330 201 300 201 270 201C240 201 210 201 180 201C150 201 120 201 90 201C60 201 30 201 15 201L0 201Z" fill="#9a2e5b"></path><path d="M0 153L15 148.5C30 144 60 135 90 131.3C120 127.7 150 129.3 180 132.2C210 135 240 139 270 139.5C300 140 330 137 360 135.5C390 134 420 134 450 137.8C480 141.7 510 149.3 540 148.5C570 147.7 600 138.3 630 135C660 131.7 690 134.3 720 137.8C750 141.3 780 145.7 810 145C840 144.3 870 138.7 885 135.8L900 133L900 201L885 201C870 201 840 201 810 201C780 201 750 201 720 201C690 201 660 201 630 201C600 201 570 201 540 201C510 201 480 201 450 201C420 201 390 201 360 201C330 201 300 201 270 201C240 201 210 201 180 201C150 201 120 201 90 201C60 201 30 201 15 201L0 201Z" fill="#bf345c"></path><path d="M0 163L15 162C30 161 60 159 90 158.3C120 157.7 150 158.3 180 159.3C210 160.3 240 161.7 270 162.8C300 164 330 165 360 165C390 165 420 164 450 162C480 160 510 157 540 155.5C570 154 600 154 630 157C660 160 690 166 720 166.3C750 166.7 780 161.3 810 162C840 162.7 870 169.3 885 172.7L900 176L900 201L885 201C870 201 840 201 810 201C780 201 750 201 720 201C690 201 660 201 630 201C600 201 570 201 540 201C510 201 480 201 450 201C420 201 390 201 360 201C330 201 300 201 270 201C240 201 210 201 180 201C150 201 120 201 90 201C60 201 30 201 15 201L0 201Z" fill="#e23e57"></path></svg>