<svg id="visual" viewBox="0 0 900 200" width="900" height="200" xmlns="http://www.w3.org/2000/svg" xmlns:xlink="http://www.w3.org/1999/xlink" version="1.1"><rect x="0" y="0" width="900" height="200" fill="#311D3F"></rect><path d="M0 154L21.5 153.3C43 152.7 86 151.3 128.8 144.5C171.7 137.7 214.3 125.3 257.2 121.2C300 117 343 121 385.8 125.7C428.7 130.3 471.3 135.7 514.2 132.7C557 129.7 600 118.3 642.8 122C685.7 125.7 728.3 144.3 771.2 148.2C814 152 857 141 878.5 135.5L900 130L900 0L878.5 0C857 0 814 0 771.2 0C728.3 0 685.7 0 642.8 0C600 0 557 0 514.2 0C471.3 0 428.7 0 385.8 0C343 0 300 0 257.2 0C214.3 0 171.7 0 128.8 0C86 0 43 0 21.5 0L0 0Z" fill="#522546"></path><path d="M0 84L21.5 88.7C43 93.3 86 102.7 128.8 110.3C171.7 118 214.3 124 257.2 118.3C300 112.7 343 95.3 385.8 93.3C428.7 91.3 471.3 104.7 514.2 108.3C557 112 600 106 642.8 104.3C685.7 102.7 728.3 105.3 771.2 109C814 112.7 857 117.3 878.5 119.7L900 122L900 0L878.5 0C857 0 814 0 771.2 0C728.3 0 685.7 0 642.8 0C600 0 557 0 514.2 0C471.3 0 428.7 0 385.8 0C343 0 300 0 257.2 0C214.3 0 171.7 0 128.8 0C86 0 43 0 21.5 0L0 0Z" fill="#752a53"></path><path d="M0 98L21.5 96.2C43 94.3 86 90.7 128.8 89C171.7 87.3 214.3 87.7 257.2 82.8C300 78 343 68 385.8 68.2C428.7 68.3 471.3 78.7 514.2 78.5C557 78.3 600 67.7 642.8 65C685.7 62.3 728.3 67.7 771.2 76C814 84.3 857 95.7 878.5 101.3L900 107L900 0L878.5 0C857 0 814 0 771.2 0C728.3 0 685.7 0 642.8 0C600 0 557 0 514.2 0C471.3 0 428.7 0 385.8 0C343 0 300 0 257.2 0C214.3 0 171.7 0 128.8 0C86 0 43 0 21.5 0L0 0Z" fill="#9a2e5b"></path><path d="M0 70L21.5 68C43 66 86 62 128.8 62.2C171.7 62.3 214.3 66.7 257.2 64C300 61.3 343 51.7 385.8 50.8C428.7 50 471.3 58 514.2 63.2C557 68.3 600 70.7 642.8 71C685.7 71.3 728.3 69.7 771.2 67.7C814 65.7 857 63.3 878.5 62.2L900 61L900 0L878.5 0C857 0 814 0 771.2 0C728.3 0 685.7 0 642.8 0C600 0 557 0 514.2 0C471.3 0 428.7 0 385.8 0C343 0 300 0 257.2 0C214.3 0 171.7 0 128.8 0C86 0 43 0 21.5 0L0 0Z" fill="#bf345c"></path><path d="M0 16L21.5 16.5C43 17 86 18 128.8 22.8C171.7 27.7 214.3 36.3 257.2 39.5C300 42.7 343 40.3 385.8 36.5C428.7 32.7 471.3 27.3 514.2 28.7C557 30 600 38 642.8 37.2C685.7 36.3 728.3 26.7 771.2 21.7C814 16.7 857 16.3 878.5 16.2L900 16L900 0L878.5 0C857 0 814 0 771.2 0C728.3 0 685.7 0 642.8 0C600 0 557 0 514.2 0C471.3 0 428.7 0 385.8 0C343 0 300 0 257.2 0C214.3 0 171.7 0 128.8 0C86 0 43 0 21.5 0L0 0Z" fill="#e23e57"></path></svg>